<svg width="97" height="40" viewBox="0 0 97 40" fill="none" xmlns="http://www.w3.org/2000/svg">
<path d="M8.84835 25.7641C9.71083 26.9852 11.3826 27.2635 12.5823 26.3855C13.782 25.5076 14.0554 23.806 13.1929 22.5849L8.84835 25.7641ZM26.5623 7.64683C26.0149 6.24991 24.4585 5.56924 23.0861 6.12646C21.7137 6.68368 21.045 8.26783 21.5924 9.66475L26.5623 7.64683ZM15.9124 0.96173C14.44 1.08692 13.346 2.40338 13.469 3.90213C13.592 5.40083 14.8854 6.51436 16.3578 6.38915L15.9124 0.96173ZM10.4585 13.8522L11.9768 9.75582L6.97047 7.83334L5.45216 11.9297L10.4585 13.8522ZM11.0206 24.1745C13.1929 22.5849 13.1929 22.5849 13.1929 22.5849C13.1929 22.585 13.1928 22.5849 13.1929 22.5849C13.1927 22.5847 13.1923 22.5841 13.192 22.5836C13.1913 22.5827 13.1903 22.5813 13.189 22.5794C13.1863 22.5756 13.1823 22.57 13.1771 22.5625C13.1664 22.5475 13.1507 22.5251 13.1301 22.496C13.0891 22.4379 13.0291 22.3527 12.9532 22.2449C12.8014 22.0294 12.5865 21.7239 12.3344 21.3644C11.8296 20.6446 11.1782 19.7122 10.5862 18.854L6.20691 21.9834C6.81054 22.8585 7.47112 23.804 7.97944 24.5288C8.2339 24.8916 8.45084 25.2 8.60429 25.4179C8.68099 25.5268 8.74187 25.6132 8.7836 25.6724C8.80453 25.702 8.82058 25.7248 8.83152 25.7403C8.83699 25.748 8.84115 25.7539 8.84395 25.7579C8.84537 25.7599 8.84644 25.7614 8.84716 25.7625C8.84757 25.763 8.84811 25.7639 8.84835 25.7641C8.84829 25.764 8.84841 25.7642 8.84835 25.7641C8.84841 25.7641 8.84835 25.7641 11.0206 24.1745ZM10.5862 18.854C10.2562 18.3755 10.0275 17.5209 9.94383 16.5131L4.61209 16.972C4.72101 18.2832 5.05347 20.311 6.20691 21.9834L10.5862 18.854ZM21.0757 8.72145L21.2323 8.96296L25.6986 5.96362L25.542 5.7221L21.0757 8.72145ZM21.6907 12.2688L21.2826 13.5986L26.39 15.2224L26.7981 13.8927L21.6907 12.2688ZM21.2323 8.96296C21.3754 9.18384 21.4961 9.41894 21.5924 9.66475L26.5623 7.64683C26.3314 7.05736 26.0419 6.49336 25.6986 5.96362L21.2323 8.96296ZM21.5924 9.66475C21.918 10.4956 21.9527 11.4151 21.6907 12.2688L26.7981 13.8927C27.4265 11.845 27.3433 9.63945 26.5623 7.64683L21.5924 9.66475ZM11.9768 9.75582C12.6768 7.86728 14.3817 6.55714 16.3578 6.38915L15.9124 0.96173C11.879 1.30466 8.39918 3.9788 6.97047 7.83334L11.9768 9.75582ZM16.3578 6.38915C18.2311 6.22988 20.0405 7.12429 21.0757 8.72145L25.542 5.7221C23.4289 2.46224 19.736 0.63664 15.9124 0.96173L16.3578 6.38915ZM5.45216 11.9297C4.93759 13.3179 4.45353 15.0632 4.61209 16.972L9.94383 16.5131C9.8836 15.788 10.0564 14.9371 10.4585 13.8522L5.45216 11.9297Z" fill="#E33535"/>
<path d="M18.809 14.376C17.9464 13.1548 16.2747 12.8766 15.075 13.7545C13.8753 14.6324 13.6019 16.334 14.4644 17.5552L18.809 14.376ZM1.0949 32.4932C1.64235 33.8901 3.1987 34.5708 4.57111 34.0136C5.94353 33.4564 6.61231 31.8722 6.06487 30.4753L1.0949 32.4932ZM11.7449 39.1783C13.2174 39.0531 14.3113 37.7366 14.1883 36.2379C14.0653 34.7392 12.7719 33.6257 11.2995 33.7509L11.7449 39.1783ZM17.1988 26.2878L15.6805 30.3842L20.6868 32.3067L22.2051 28.2103L17.1988 26.2878ZM16.6367 15.9656C14.4644 17.5552 14.4644 17.5552 14.4644 17.5552V17.5552L14.4653 17.5564C14.4653 17.5564 14.467 17.5588 14.4683 17.5607C14.471 17.5644 14.475 17.5701 14.4802 17.5776C14.4908 17.5926 14.5066 17.6149 14.5271 17.644C14.5682 17.7022 14.6282 17.7874 14.7041 17.8951C14.8559 18.1107 15.0708 18.4162 15.3229 18.7756C15.8277 19.4954 16.4791 20.4278 17.0711 21.2861L21.4503 18.1567C20.8468 17.2816 20.1862 16.336 19.6779 15.6112C19.4233 15.2484 19.2064 14.94 19.053 14.7221C18.9763 14.6132 18.9154 14.5269 18.8736 14.4676C18.8528 14.438 18.8367 14.4152 18.8258 14.3998C18.8203 14.3921 18.8162 14.3861 18.8133 14.3821C18.8119 14.3801 18.8101 14.3776 18.8101 14.3776L18.809 14.376V14.376C18.809 14.376 18.809 14.376 16.6367 15.9656ZM17.0711 21.2861C17.4011 21.7645 17.6297 22.6191 17.7135 23.6269L23.0452 23.1681C22.9362 21.8568 22.6038 19.829 21.4503 18.1567L17.0711 21.2861ZM6.58157 31.4186L6.42503 31.1771L1.95875 34.1764L2.11529 34.4179L6.58157 31.4186ZM5.96659 27.8712L6.37468 26.5414L1.26726 24.9176L0.859171 26.2473L5.96659 27.8712ZM6.42503 31.1771C6.28187 30.9562 6.16118 30.7211 6.06487 30.4753L1.0949 32.4932C1.32594 33.0826 1.61535 33.6466 1.95875 34.1764L6.42503 31.1771ZM6.06487 30.4753C5.7393 29.6445 5.70458 28.725 5.96659 27.8712L0.859171 26.2473C0.230754 28.295 0.313989 30.5005 1.0949 32.4932L6.06487 30.4753ZM15.6805 30.3842C14.9805 32.2727 13.2756 33.5829 11.2995 33.7509L11.7449 39.1783C15.7783 38.8354 19.2581 36.1613 20.6868 32.3067L15.6805 30.3842ZM11.2995 33.7509C9.42616 33.9102 7.61683 33.0157 6.58157 31.4186L2.11529 34.4179C4.22831 37.6778 7.92129 39.5034 11.7449 39.1783L11.2995 33.7509ZM22.2051 28.2103C22.7197 26.8222 23.2038 25.0768 23.0452 23.1681L17.7135 23.6269C17.7737 24.352 17.6009 25.203 17.1988 26.2878L22.2051 28.2103Z" fill="#FFB696"/>
<path d="M44.717 32.0906C43.0845 32.0906 41.5112 31.9013 39.9969 31.5228C38.5064 31.1205 37.3234 30.6237 36.448 30.0322L38.2934 26.0574C39.1689 26.6016 40.1981 27.0511 41.381 27.406C42.5877 27.7372 43.7707 27.9028 44.93 27.9028C46.2076 27.9028 47.1067 27.749 47.6272 27.4415C48.1713 27.1339 48.4434 26.708 48.4434 26.1638C48.4434 25.7143 48.2305 25.3831 47.8046 25.1701C47.4024 24.9335 46.8582 24.7561 46.1721 24.6378C45.486 24.5195 44.7289 24.4012 43.9008 24.2829C43.0964 24.1646 42.2801 24.0108 41.452 23.8215C40.6239 23.6086 39.8668 23.301 39.1807 22.8988C38.4946 22.4966 37.9386 21.9524 37.5127 21.2663C37.1105 20.5802 36.9094 19.6929 36.9094 18.6046C36.9094 17.398 37.2524 16.3333 37.9386 15.4105C38.6483 14.4878 39.6657 13.7662 40.9906 13.2457C42.3156 12.7015 43.9008 12.4294 45.7462 12.4294C47.0475 12.4294 48.3725 12.5714 49.7211 12.8553C51.0697 13.1392 52.1935 13.5533 53.0926 14.0974L51.2471 18.0368C50.3244 17.4926 49.3898 17.1259 48.4434 16.9366C47.5207 16.7237 46.6216 16.6172 45.7462 16.6172C44.5159 16.6172 43.6169 16.7828 43.049 17.114C42.4812 17.4453 42.1973 17.8711 42.1973 18.3917C42.1973 18.8648 42.3984 19.2197 42.8006 19.4563C43.2265 19.6929 43.7825 19.8822 44.4686 20.0242C45.1547 20.1661 45.9 20.2963 46.7045 20.4146C47.5325 20.5092 48.3606 20.663 49.1887 20.8759C50.0168 21.0889 50.7621 21.3964 51.4246 21.7986C52.1107 22.1772 52.6667 22.7095 53.0926 23.3957C53.5184 24.0581 53.7314 24.9335 53.7314 26.0219C53.7314 27.2049 53.3765 28.2577 52.6667 29.1805C51.9569 30.0795 50.9277 30.7893 49.5791 31.3098C48.2542 31.8303 46.6335 32.0906 44.717 32.0906Z" fill="#333333"/>
<path d="M59.2411 32.0906C58.2947 32.0906 57.4785 31.7712 56.7923 31.1324C56.1299 30.4699 55.7986 29.63 55.7986 28.6126C55.7986 27.5953 56.1299 26.779 56.7923 26.1638C57.4785 25.525 58.2947 25.2056 59.2411 25.2056C60.2111 25.2056 61.0274 25.525 61.6899 26.1638C62.3523 26.779 62.6836 27.5953 62.6836 28.6126C62.6836 29.63 62.3523 30.4699 61.6899 31.1324C61.0274 31.7712 60.2111 32.0906 59.2411 32.0906Z" fill="#333333"/>
<path d="M66.4355 31.8067V12.7133H71.9718V31.8067H66.4355ZM69.2037 10.0516C68.1863 10.0516 67.3582 9.75589 66.7194 9.1644C66.0806 8.5729 65.7612 7.83946 65.7612 6.96405C65.7612 6.08864 66.0806 5.35519 66.7194 4.7637C67.3582 4.17221 68.1863 3.87646 69.2037 3.87646C70.221 3.87646 71.0491 4.16038 71.6879 4.72821C72.3267 5.27239 72.6461 5.98217 72.6461 6.85758C72.6461 7.78031 72.3267 8.54924 71.6879 9.1644C71.0728 9.75589 70.2447 10.0516 69.2037 10.0516Z" fill="#333333"/>
<path d="M85.3081 32.0906C83.51 32.0906 81.8893 31.6884 80.4461 30.8839C79.0028 30.0559 77.8553 28.9084 77.0036 27.4415C76.1755 25.9746 75.7614 24.2474 75.7614 22.26C75.7614 20.2489 76.1755 18.51 77.0036 17.0431C77.8553 15.5762 79.0028 14.4405 80.4461 13.6361C81.8893 12.8316 83.51 12.4294 85.3081 12.4294C86.917 12.4294 88.3247 12.7843 89.5314 13.4941C90.738 14.2039 91.6726 15.2804 92.335 16.7237C92.9975 18.1669 93.3287 20.0123 93.3287 22.26C93.3287 24.484 93.0093 26.3295 92.3705 27.7964C91.7317 29.2396 90.809 30.3161 89.6023 31.0259C88.4194 31.7357 86.9879 32.0906 85.3081 32.0906ZM86.2663 27.5479C87.1654 27.5479 87.9816 27.335 88.7151 26.9091C89.4485 26.4833 90.0282 25.8799 90.4541 25.0992C90.9036 24.2947 91.1284 23.3484 91.1284 22.26C91.1284 21.148 90.9036 20.2016 90.4541 19.4209C90.0282 18.6401 89.4485 18.0368 88.7151 17.6109C87.9816 17.185 87.1654 16.9721 86.2663 16.9721C85.3436 16.9721 84.5155 17.185 83.7821 17.6109C83.0486 18.0368 82.4571 18.6401 82.0076 19.4209C81.5817 20.2016 81.3688 21.148 81.3688 22.26C81.3688 23.3484 81.5817 24.2947 82.0076 25.0992C82.4571 25.8799 83.0486 26.4833 83.7821 26.9091C84.5155 27.335 85.3436 27.5479 86.2663 27.5479ZM91.2703 31.8067V27.9028L91.3768 22.2245L91.0219 16.5817V5.47349H96.5583V31.8067H91.2703Z" fill="#333333"/>
</svg>
